/* XPM */
static char *_35fe01fcb5f4e65f2b2aef0eef5eaaekI6E4qoTjpG2DhuU[] = {
/* columns rows colors chars-per-pixel */
"64 64 247 2 ",
"   c #1B0E11",
".  c #33190D",
"X  c #281716",
"o  c #341D16",
"O  c #2F2218",
"+  c #3C2115",
"@  c #39221A",
"#  c #3C2826",
"$  c #352833",
"%  c #472616",
"&  c #4E2B17",
"*  c #43261C",
"=  c #4C2B1D",
"-  c #542C13",
";  c #532C14",
":  c #522E1B",
">  c #56321C",
",  c #432624",
"<  c #442B25",
"1  c #4C2D24",
"2  c #432C2B",
"3  c #492E2A",
"4  c #502F24",
"5  c #4A3228",
"6  c #4D322C",
"7  c #533224",
"8  c #5A3523",
"9  c #5C3924",
"0  c #53342C",
"q  c #59372C",
"w  c #55392D",
"e  c #5C3A2C",
"r  c #452D30",
"t  c #4D3431",
"y  c #483735",
"u  c #523632",
"i  c #583731",
"p  c #543A34",
"a  c #5B3C33",
"s  c #553B39",
"d  c #593E3A",
"f  c #643C23",
"g  c #633D2A",
"h  c #613F33",
"j  c #6B401D",
"k  c #5D4129",
"l  c #49433C",
"z  c #5D4134",
"x  c #53463C",
"c  c #5C423C",
"v  c #69442A",
"b  c #684836",
"n  c #61443C",
"m  c #705139",
"M  c #74533C",
"N  c #795538",
"B  c #3F3F49",
"V  c #3F4252",
"C  c #444244",
"Z  c #44444C",
"A  c #4A4648",
"S  c #4C4A4D",
"D  c #554B45",
"F  c #524E4C",
"G  c #5A5249",
"H  c #444554",
"J  c #474756",
"K  c #464954",
"L  c #4C4B54",
"P  c #464A5A",
"I  c #4C4D5A",
"U  c #524E53",
"Y  c #514F5C",
"T  c #4E5053",
"R  c #4E515D",
"E  c #555255",
"W  c #5B5354",
"Q  c #53535C",
"!  c #5A565B",
"~  c #5D5A59",
"^  c #654B44",
"/  c #654C44",
"(  c #685749",
")  c #785A46",
"_  c #665D57",
"`  c #735850",
"'  c #6B6248",
"]  c #74644A",
"[  c #6C6458",
"{  c #796857",
"}  c #787356",
"|  c #4F4F62",
" . c #4D5262",
".. c #535462",
"X. c #595765",
"o. c #565863",
"O. c #5B5B64",
"+. c #565969",
"@. c #5B5C6B",
"#. c #5C5E71",
"$. c #635F66",
"%. c #5D6170",
"&. c #676267",
"*. c #63626B",
"=. c #646677",
"-. c #757172",
";. c #825C3D",
":. c #815E44",
">. c #856449",
",. c #956B48",
"<. c #866956",
"1. c #8F6F55",
"2. c #89755A",
"3. c #987657",
"4. c #94735B",
"5. c #937B5B",
"6. c #9C7C5B",
"7. c #A57C58",
"8. c #887667",
"9. c #957B64",
"0. c #977B67",
"q. c #9B7D63",
"w. c #8D7D7C",
"e. c #A17E69",
"r. c #9A885C",
"t. c #A7865C",
"y. c #AA8D5D",
"u. c #9B8363",
"i. c #998766",
"p. c #9D836B",
"a. c #9F9068",
"s. c #9D8872",
"d. c #A38265",
"f. c #A28C64",
"g. c #A3846B",
"h. c #A58B6B",
"j. c #AA8868",
"k. c #AB8B6D",
"l. c #B18C67",
"z. c #A79467",
"x. c #AC946C",
"c. c #AC9A6D",
"v. c #B99767",
"b. c #B3936C",
"n. c #B29C6D",
"m. c #BC9D6D",
"M. c #A68B74",
"N. c #AB8C73",
"B. c #B18E72",
"V. c #AD9273",
"C. c #AE9C73",
"Z. c #AC927A",
"A. c #A99878",
"S. c #B39374",
"D. c #BA9676",
"F. c #B49B74",
"G. c #BB9B75",
"H. c #B3957A",
"J. c #B99679",
"K. c #B59B7A",
"L. c #BB9C7B",
"P. c #B5A16C",
"I. c #BCA469",
"U. c #BAA36D",
"Y. c #ADA27C",
"T. c #B3A274",
"R. c #BBA475",
"E. c #B4A47B",
"W. c #BCA37C",
"Q. c #B8AA79",
"!. c #BCAB7D",
"~. c #B9B07F",
"^. c #C19B6C",
"/. c #C29D72",
"(. c #C89F76",
"). c #C19E7D",
"_. c #C4A26C",
"`. c #CAA66D",
"'. c #C4A374",
"]. c #CAA474",
"[. c #C3AA74",
"{. c #CDAA74",
"}. c #C3A37C",
"|. c #CBA67B",
" X c #C4AB7C",
".X c #CCAB7C",
"XX c #D1AC76",
"oX c #D2AD7C",
"OX c #CBB175",
"+X c #CCB27C",
"@X c #D5B77A",
"#X c #D4B27C",
"$X c #6F738D",
"%X c #797887",
"&X c #7C86A0",
"*X c #878A9A",
"=X c #938F90",
"-X c #A79586",
";X c #B69B85",
":X c #BB9D81",
">X c #A39B95",
",X c #BCA482",
"<X c #BDAB83",
"1X c #BAA788",
"2X c #BAA98F",
"3X c #8D94AA",
"4X c #ACAEB8",
"5X c #C19F81",
"6X c #C3A483",
"7X c #CAA684",
"8X c #C3AB83",
"9X c #CCAC84",
"0X c #C4A489",
"qX c #CAA78A",
"wX c #C4AB8A",
"eX c #CBAC8B",
"rX c #D3AE82",
"tX c #D2AE8A",
"yX c #C4B184",
"uX c #CCB383",
"iX c #C4B18C",
"pX c #CCB28C",
"aX c #CDB888",
"sX c #D4B383",
"dX c #DAB484",
"fX c #DBBB84",
"gX c #D3B38C",
"hX c #DAB58B",
"jX c #D4BA88",
"kX c #DCBA8C",
"lX c #C2AB91",
"zX c #CDB291",
"xX c #C9B592",
"cX c #D4B493",
"vX c #DCBB93",
"bX c #D8B894",
"nX c #DABB9B",
"mX c #E1BC8B",
"MX c #E1BE97",
"NX c #D1BCAA",
"BX c #DBC09B",
"VX c #E0C18F",
"CX c #E3C295",
"ZX c #E3C29D",
"AX c #D9C2AD",
"SX c #E5C7A4",
"DX c #EDD3B3",
/* pixels */
"&.! E Q ..@.#.=.@.%.O.&._ _ $.$.O.! O.O.O.X... . .+.=.+.O...Q Q *.*.O.O.O.Q ! ..O.W W W E E E S S U W W E U U S S F E ! O.Q Q U ",
"*.E L I I +.@.#. .+.Q O.$.~ ~ O.! Q o.o.X...R  . . .%.......Q Q @.@.....O.Q o.Q ! _ _ W E E U A A E E E U L L Z S S U ! *.Q I I ",
"o.L I I I +...+. .+.o.O.Q ! ! O.Q I R o.X.O... . . .#. .Q ......O...Q ....Y ....E G _ W L L U Z C A L Q K K L Z A S L Q *.Q P I ",
"..L P P I +. .@.....+.X.I R Q O...I R o.O.@... . ...%.....Y I ..X. .R ....I I I E G ( G S L U C C B K R K K K Z Z S L L @.Q H I ",
"X.P P H I +...#.| ..+.o.I o.! ..Q I R ....O.Q  .R ..=...Q Y I R ..I P ....Q Q ! W ( ( ( F S F S S A I I P Z Z Z Z Z K L O.Q H H ",
"..H H H I +.+.#...o.....I ..L I I I I ....O.Q Q ~ ~ &._ _ ! I P  .P P R I I T L F ( ] ( G F F D G A H  .P Z Z C C Z H P O.Q K Z ",
"..H H H I +.+.=....... .P I I Q Q I P ..o.O.! _ } } [ ' { _ L I  .H I ..Q S Z Z F G ( ( D A A A G G L | H H Z Z Z Z H H Q ! K S ",
"I H H B P ..+.%.I R ..I P I H I ..Q L ..Q ..! ( ' ' [ ( { [ W Q ..H K E E F C A F D D x C C C l x ( S H V V Z Z H H @.%X*X*.Q *.",
"I H H V P ....+.P ....I H P H I ..O.*.-.-.-.-.%X=X>X8.] ' ] _ E Q K K S F A l C A D x l y C C y x ( F K K Z A A Q =.%X*X4X4X3X*X",
"I Z Z H I .. . .I +...H V I P I ..@.*.*X3X*X*X&X*X4XNX] M ' ( F ! L F F A l l D D G G x D G / / ) ] [ _ _ [ [ [ -.*X%X-.%X3X3X3X",
"W F U U ! ! ! ! U ! ! S Z L Q ..O.Q Q =.=.$X$X$X$X=XAX] M ] ] _ _ ( [ _ ( ( ( _ ` { 2.2.2.2.u.i.u.u.a.s.s.s.A.A.-Xw.X.W =X3X3X&X",
"2.9.9.2.<.<.<.{ { { { { { [ [ &.&.W U *.X.#.$X%X*.=XNX9.5.5.5.5.5.6.u.q.6.q.p.u.u.u.f.z.c.c.z.g.h.z.b.V.K.F.k.p.<.D # c 2X>X*X3X",
"t.t.y.t.r.f.f.r.r.5.u.f.u.r.i.i.s.8.} 8.} { { 8.{ s.1XG.R.G.G.m.m.U.'.'.'.R.R.}.R.R.R.W.W.Q.E.K.E.V.<.) 9.h.9.n < 2 , e Z.1X-X>X",
"v.v.I.U.P.U.U.R.R.n.U.U.P.P.T.T.R.R.I.R.R.Q.E.!.!.!.OXOX@X#X#X{.{.{.OX#XsXsXjXjXgXjXjXsXuXaXjXjXyX] 6 t p 6 6 2 2 2 w d.F.uXaXiX",
"U.R.U.n.z.n.P.R.R.P.n.n.z.z.c.C.c.n.U.I.U.R. XQ.[.I.I.`.@X@XOXOXOXOXOXOX@XfXfXjXt.sXfXjX3. XjXfX[.z 2 r r 2 2 r 2 < m }.jXjXkXBX",
"n.n.n.n.F.E.E.!.<XE.F.F.T.T.F.C.C.T.T.n.P.P.n.C.T.c.n.P.OX+XR.T.R.U.I.I.[.+X#XuXk r.gXgX: 6.aX+Xn.z 2 2 2 2 # r 2 5 m m.[.aXjXkX",
"<X8X<X,X1XE.E.E.E.E.~.<X<X<X<X,X<X!.!.!.!.!.Q.!.!.Q.8X8X8XW.<X<XyXyX X X+X+X+X!.5 0 ( ( . p.<XQ.F.n 3 < < < < r < 4 3..XuXjXaX X",
"xXzXwXwX,XE.K.C.C.E.<X<X<X<XE.E.,X,X<X<X8X!.!.!.Q.R. X9X8XQ.E.E.<X<X<X!.<X8X X<Xx X X # b F.C.c.V.b 0 7 m w w 6 ^ 7 6.R..XuXaXuX",
"cXcXcXzXeXpXpX8X8X,XwXwXwXwX1X<X<X<X,XwXpXeXzXzXeXeX9XgXpX8X8X<XwX<X<XE.~.<X<Xi.y X $ c ,X XT.T.C.M g M K.K.Z.( 9.M x.[..XaXjXjX",
"cXbXbXgXbXbXbXgXgXeXzXzXzXzXwXeXwXwXwXeXgXtXcXcXcXgXgXvXcXgXpXpXzXwXyXxXaXpX9.t 2 # %X8.,.rXsXuX9X:.v l.9XuX6X1.K.3.sXkXCXCXCXVX",
"0X7X7X9XpXpXpXeXeXwXeXeXeX0X5X0X0X0X0X7X7X7XqXqXqXtXgXbXvXgXbXbXbXeXpXbXcX,X) c < # F ( 9 d.tX#XoX,.,.oXfXfX#Xy.rXl.rXkXMXCXvXsX",
"W.E.W. X!.!.<XE.K.K.K.K.L.S.V.H.:X:XK.K.L.}.}.}.9X7X9XgXeX7XeX6X6XK.0XqXqXM b z @ # , 3 q v D.G.b.7.t.].].].].b.|.j.m.|.tX9X.X'.",
"C.E.~.!.!.!.!.T.E.E.E.T.C.C.C.E.C.E.E.E.E.E.W.8X XW.,X6XL.K.,XH.H.H.;X;X9.d z 7 5 # + = v cXg.p.p.g.k.V.b.l.j.b.G.G.v.b.b.b.G.G.",
"Y.Y.Y.E.E.Q.Q.T.Q.Q.~.E.C.z.W.bXZXnXBX<XE.E.E.<X<XiXiX2XwX2XlX2X;X8.-X-X` s w 7 0 , o ) 7.9Xu.s.A.C.E.F.T.R.R.W.F.W.R.n.F.L././.",
"C.,X,X1X1X<X,XE.E.E.E.9.b b b M 4.:XnXDXDXBXxXiX<XiXwXlX1X1X;X8.@ # p ^ p p 0 0 4 < # m |.6X}.F.R.W.W.G.R.R.R.W.W.}. X}. X9X.X.X",
",XwXwXzXcXcXwXiX2Xs.` c c p p a 0 0 z <.d.J.bXZXSXBXnXeXwXZ.) c 3 t s p 0 0 w 0 0 6 @ b hXZX|.'.}.|.9X.X.X9X9X6X9X9XgXgXgXvXgXgX",
"eXbXnXSXSXZXnX1X8.^ c s t t p d t 2 # t z b M <.4.j.d.<.m a p s r 2 u t 5 u a 0 < t o 5 0X}.hXhXhXkXdXkXhXkXvXvXvXvXvXvXZXZXZXZX",
"BXZXSXSXDXDX;X` c s s t u u p p p r # r y p c c a b a a w p d u < 2 t 6 3 u a 7 1 6 # # p.vXZXSXZXCXkXvXkXCXCXZXZXMXMXvXvXMXvXvX",
"SXZXSXSXBXAX{ c s p 6 5 0 p a w 3 , 2 u s s s s p p u p p u p 5 # # 6 6 3 u a 7 1 r y A 8.bXZXMXbXvXkXkXkXkXkXhXhXhXvXhXhXhXhXsX",
"MXZXZXZXSXlX/ c p u 0 0 0 a p 0 3 < t s s s s p u u 6 6 6 6 6 , < # 3 3 < 6 w 7 = 6 l x lXgXMXhXsXsXdXrXsXdXdXdXdXhXkXhXdXdXdXsX",
"vXbXvXvXnXM./ c p u i 0 w i i 5 3 6 p s s s s p u 6 3 6 6 6 5 < 3 < < < * 3 q 7 = = % b BXvXbXvXkXdXdXsX#X#XdXdXdXhXfXfXfXdXdXdX",
"bXvXvXvXbX9./ d p u p 0 w i 0 3 6 d d d p p p p 0 5 5 0 6 5 u < < , < < < * 0 1 = 9 ;.gXkXvXvXvXMXkXmXdX#XdXdXfXdXfXmXmX#X#XdXfX",
"gXbXvXbXbX9./ c p p p w p i 5 3 p c c c s p p p 0 0 0 i p u u 3 3 < < 3 1 1 1 7 : v ,.dXkXhXvXvXkXhXhX#XoX#XdXdXmXhXdXfX#X#X#XdX",
"cXbXnXbXbXp.( d d s p i w w 5 p c ^ c c d d p p i i a p d d p 6 3 6 5 1 1 7 7 w > v 7.mXkXsXhXhXdXrXoXXXXXXX#XoXdXsXoXoX|.oXdX#X",
"cXcXnXcXcXM.( s d s u 0 7 5 p n n n c c d d a w w q w a c c d 6 3 6 5 1 4 7 e b b g l.kXsXdXdXdXdX#X#XoXXXXXXX{.XXoXoX.X.XrX.XsX",
"nXnXnXnXbXZ./ p p p 0 7 1 1 c / / n n c c d a a w q w a n n d u 6 6 6 5 0 7 9 b g f t.mXhXkXdXdXsXsX#X#XdX#XoXoXoX{.#X.X{..X.X#X",
"cXnXnXnXcXg.( p 0 0 5 7 = 5 ^ ( ^ n n c c z a a w w w w a n s i 6 6 6 5 7 7 9 g g f 7.mXkXsXsXdXhXdXsX#XsXsXdX#X.X'.#X#X{..X#X{.",
"cXnXgXcXeXg.p s 0 4 1 4 = * < / ^ n n n z z a a a w q q a n d p 0 0 5 5 7 7 g g f f ,.kXsXrXoXrXsXdXoXoXoXdXoXoX.X.X#X#X#XoX#X{.",
"tXgXtXgXgXH.@ x 6 1 1 * * o X c ^ c b h a a a e a e w q w n p i 0 5 1 1 7 9 g m v m v.sX.X.X'.|.|.oXrXoX.XkXsXoXoXoXoXXX#X{.{.{.",
"|.rX9X9X.XK.O y 6 = * = , o X o n n a e e q e e e e e w w a w 0 4 1 = 7 : > f v f N tXrX.XoX'.'..XoXoX.XuX+XoXoXoXrXoX{.].XXXX{.",
"].|.|.}.}.K.O X s 1 3 1 1 o o + 1 b e q e 8 9 9 e g g e q a 7 = = = = 7 = & 9 : > ,.rXoX.X{.'.m.'.sXsX.X{._.^.].'.oX.X{._.oX{.@X",
".X.X/.b.}.:XO   s 6 0 0 q + + * 7 4.:.f > 8 8 8 > 9 9 e q q 7 % = : 7 & + : : ; j |.oXXXoXoXrX|.'.'.#X#X'._.v.]././.'.oX{.{._.'.",
"sX'.b.t.l.V.O   y t 0 n e.+ * = g 9XsXb.N f > > ; ; ; ; : 7 e 7 7 9 9 & % % % - N ].XXXXoXrX|.oXoX{.XX#XoXrX].oX/.v.].{.{.XX'.'.",
".X'.l.t.l.p.#   s t 0 m S.+ + = >.sXsX.X.X'.b.t.3.6.3.3.,.3.) 0 1 8 v b v . & ; j y.(.].{.rXoXoXoX].#XdXdXhXhXrX(.'.oXXX{.`._.].",
"+XsX'.'.R.h.2   y 5 1 N g.. + = 3..X[.'.'. XgXgX9X9XgX}.}.qX) 7 1 : N ).S.: : 8 v y.v.m././.'..X].'.sXsXkXsXkX.X/./.].v._._.`.{.",
"[. XuXuX X,Xx X 2 * = ) 4.. * : d. X XR.R.}.8X8X8XR.}.).}.eXM 1 = & 7..X9Xg 8 f N |.7XG.}.tX|.}..X.XrXgXgX9X9X|.^./.'._.{._.`.XX",
"!.8X!.!.!.K.(   2 + % >.b . * 9 j.F.Q.R.c.F.T.F.F.W.W.}.}.6XM 4 = ; x.gXcXb g 8 >.9X}.G.).|.}.'.9X.X9X.X/.m.|.|.^./.].'.#X.X#XoX",
"1X<XyX<X!.1X<.X 5 * : <.@ o % v G.R.8XE.Q.E.!.!.!.8X8XW.eXwX) 7 4 7 K.pX8XM g > 1.G.G.G.'./.m.v.'.'.|..Xm.m.|.|.^.v.v.b.m.'.'.'.",
"1XwX<X<XzXwX8.@ # 3 7 ] X o % 6. X8XyX<XyXE.E.<X<XwXwX8XW.0XM 7 7 M pXyX8X) 9 7 6.9X.X.X.X.X'._..X+X.X+X_..XsX9X'.G.}.'.|..X9XsX",
"W.W.F.W.wXwXM., # * q <.o o = D.9XyX<X<XyXxXiX<XwXpXeXeXwXwX) 7 7 q.eX8XyX5.e 7 t..X+XyXQ.'.n. Xm..XOXOX{.{.sXtX7X}.}.9X9XtXuXhX",
"F.F.j.K.L.,XZ.w , * 7 p.w + : ). X9XwXE.W.pX,X1XW.,X6X6X6X,X) 1 q K.9X XW.j.b = 3.sX!.yXR. X8X8X}.'.OX[.[.+X.XpX).7XtXgX9X}.9XsX",
"G.K.6XS.6XW.H.) 0 w ) K.<.= q 7X X7XeXW.}.W.S.K.,X,X6XeXK.:Xk + 9 L.8X[.8X}.b 7 3.}.n.yXR.pXF.L.F.uX Xv. X}.9X8X6X9X9XsXrX'.9X}.",
"r.A.V.K.K.E.S.9./ q >.,XS.q h 7XG.}.6XL.S.F.S.H.,X6XwXwX6X:Xm * ) S.L.}.W.6X:.e 3.}.,X8X9X}.K.L.L.9X Xm. XW.L.F.L. X|.}..XG.9XG.",
"u.f.V.A.z.x.x.q.>.b >.L.L.M q g.F.h.L.W.D.L.H.K.wXqX0XqXL.K.1.7 <.6X6X6X6X6Xg.) q.eXwXpXwXeXK.L.8XF.G.W.F.F.6XF.j.G.).b.G.}.W.G.",
"T.C.c.x.C.T.Q.j.3.>.M S.S.q.b <.W.V.V.L.b.L.S.K.0X6XK.0X5X).4.e S.}.0XeXeX6XV.) Z.0X6X,XwXV.L.8X6X8XD.F.F.E.W.L.6XeXL.B.S.x.x.F.",
"z.z.a.c.R.c.F.b.d.q.m 5.u.H.) 2.V.h.V.K.F.E.h.h.L.L.V.5XL.G.4.m J.K.D.0X7X0XK.>.N.eXwXeX,X6XW.wX,X8XR.x.W.W.,XL.6X0XeX5XL.K.V.F.",
"r.r.f.f.z.a.f.f.x.u.] 4.V.V.9.( g.g.f.x.G.E.C.A.,XW.S.K.L.D.4.M S.S.k.S.J.L.S.>.N.6XeX0X6X8XL.W.pXE.W. X8X6X6XW.eX}.eXqX6X0X6XW.",
"f.r.a.f.r.z.h.x.z.r.{ 1.H.F.p.<.9.,XF.F.R.n.W.,X,XL.V.S.J.B.>.1.S.6X:XK.6XK.H.>.g.:X6X,X,XF.S.F.W.F.n.W.W.L.D.L.}.6X}.6X}.6X0X0X",
"c.z.c.r.z.n.z.z.F.h.2.<.p.F.k.p.9.V.K.K.8XW.L.6XL.6X:XL.S.N.4.4.L.L.L.J.6X5XS.4.g.0X0X6XW.W.L.L.}.F.L.D.6XL.D.D.D.L.L.5X5XJ.0X).",
"r.r.c.z.y.r.f.r.F.V.9.<.p.x.j.5.9.g.;XK.8X6XV.K.6X6X6XK.H.g.>.1.).D./.D.G.J.H.4.N.0X5XG.R.9XW.}.}.W.b.b.W.S.).D.D.L.S.J.J.J.).F.",
"i.z.c.c.f.a.i.r.u.Z.p.9.p.V.V.V.M.9.M.K.V.L.V.K.:X:XS.g.k.N.4.g.J.).J.D.B.D.K.:XN.:X5XF.G.F.F.J.S.S.S.S.K.S.B.B.S.).D.S.B.B.D.b.",
"i.5.h.x.r.5.5.2.2.u.p.M.V.N.h.N.H.M.Z.M.h.H.M.N.H.H.N.d.g.g.q.N.L.0XJ.N.N.H.B.H.B.H.J.N.V.k.S.k.d.6.k.k.S.k.d.S.k.S.k.k.B.j.l.l.",
"V.V.p.u.r.p.p.5.5.V.H.Z.:Xh.g.h.h.Z.Z.M.q.V.N.g.S.S.g.g.g.q.N.q.S.:XN.e.g.N.g.N.g.d.g.S.h.h.k.k.d.q.d.g.d.q.d.N.B.6.d.j.B.S.l.j.",
"s.K.s.9.{ 2.i.i.2.9.Z.h.Z.Z.V.h.N.V.M.p.9.9.9.p.g.M.p.<.p.9.s.9.g.;XZ.p.9.g.9.g.p.9.9.9.2.2.p.u.h.h.g.p.9.p.p.g.q.6.3.6.j.d.d.k."
};
