/* XPM */
static char *_95b0ae84f9d4802ee8d671355f9e2edAfF7LZ3kOqKuu3VP[] = {
/* columns rows colors chars-per-pixel */
"64 64 254 2 ",
"   c #030504",
".  c #080A08",
"X  c #130A06",
"o  c #1A0A04",
"O  c #0C130A",
"+  c #15160A",
"@  c #060D12",
"#  c #110811",
"$  c #0C1315",
"%  c #171816",
"&  c #240C03",
"*  c #280E03",
"=  c #291708",
"-  c #371705",
";  c #2A1913",
":  c #1D2505",
">  c #1C2218",
",  c #28260C",
"<  c #292817",
"1  c #312F14",
"2  c #342919",
"3  c #36371B",
"4  c #111A26",
"5  c #231B24",
"6  c #1B262F",
"7  c #252824",
"8  c #362B25",
"9  c #383626",
"0  c #2A2F35",
"q  c #353936",
"w  c #471B04",
"e  c #551F04",
"r  c #492508",
"t  c #572608",
"y  c #492814",
"u  c #532C13",
"i  c #4A3511",
"p  c #583619",
"a  c #652B04",
"s  c #662A08",
"d  c #6A2C0B",
"f  c #6B330A",
"g  c #783508",
"h  c #683716",
"j  c #763A14",
"k  c #463A27",
"l  c #4F3B2F",
"z  c #693C24",
"x  c #3C4516",
"c  c #3C412F",
"v  c #46481A",
"b  c #50531B",
"n  c #6C461A",
"m  c #794418",
"M  c #494829",
"N  c #56492A",
"B  c #4C5825",
"V  c #575A28",
"C  c #494839",
"Z  c #574936",
"A  c #4A5334",
"S  c #575537",
"D  c #7A4728",
"F  c #6F512F",
"G  c #695939",
"H  c #56652D",
"J  c #576535",
"K  c #666836",
"L  c #716F36",
"P  c #313649",
"I  c #2B365D",
"U  c #413E47",
"Y  c #36464C",
"T  c #3B486D",
"R  c #3B617D",
"E  c #484A47",
"W  c #565446",
"Q  c #52544B",
"!  c #655946",
"~  c #6C554D",
"^  c #576D4A",
"/  c #686545",
"(  c #756748",
")  c #7A774A",
"_  c #727155",
"`  c #4C5B70",
"'  c #685A62",
"]  c #566568",
"[  c #516975",
"{  c #70736F",
"}  c #843B09",
"|  c #823F12",
" . c #91460E",
".. c #94460D",
"X. c #894819",
"o. c #964B17",
"O. c #A1531B",
"+. c #8B542D",
"@. c #985729",
"#. c #A45C2A",
"$. c #926735",
"%. c #837A3C",
"&. c #AB6D35",
"*. c #A86738",
"=. c #865C44",
"-. c #8F6C4E",
";. c #867847",
":. c #887858",
">. c #AB764E",
",. c #B77745",
"<. c #8E7865",
"1. c #7C8D3D",
"2. c #5B815A",
"3. c #77884A",
"4. c #738A73",
"5. c #87873E",
"6. c #968B3F",
"7. c #8A8A47",
"8. c #938B48",
"9. c #8B9549",
"0. c #94934C",
"q. c #99974C",
"w. c #8A8758",
"e. c #92895A",
"r. c #8C9555",
"t. c #9D9B53",
"y. c #989856",
"u. c #AD8C52",
"i. c #A39C54",
"p. c #A89A57",
"a. c #A49D59",
"s. c #9DA359",
"d. c #A7A759",
"f. c #A4A45B",
"g. c #ABA35D",
"h. c #B2A85C",
"j. c #988A67",
"k. c #9A9767",
"l. c #8E8C71",
"z. c #A88D6B",
"x. c #A69A68",
"c. c #A99976",
"v. c #9EA36B",
"b. c #A6A866",
"n. c #ACAB62",
"m. c #B3AB63",
"M. c #B6AB67",
"N. c #ACB367",
"B. c #B1B364",
"V. c #B3B46C",
"C. c #B9B76B",
"Z. c #AAAE75",
"A. c #B7AB76",
"S. c #B8B777",
"D. c #BCBC73",
"F. c #CC8C55",
"G. c #C28962",
"H. c #C2B56D",
"J. c #C5BA79",
"K. c #BAC069",
"L. c #BEC175",
"P. c #C1C56E",
"I. c #C4C278",
"U. c #4E6B88",
"Y. c #4B7398",
"T. c #577699",
"R. c #6E7D8B",
"E. c #557CA6",
"W. c #807F89",
"Q. c #738B91",
"!. c #5985AC",
"~. c #5789B6",
"^. c #5A8AB5",
"/. c #6890B3",
"(. c #78A4B7",
"). c #4E9CDE",
"_. c #519EDE",
"`. c #599ED9",
"'. c #669CC5",
"]. c #5FA4CC",
"[. c #54A3DE",
"{. c #59A3DE",
"}. c #59A8DF",
"|. c #71ACD4",
" X c #4C9FE2",
".X c #509EE0",
"XX c #55A3E1",
"oX c #5AA5E1",
"OX c #5CAAE2",
"+X c #5EAEE5",
"@X c #5CADE9",
"#X c #5EB2E8",
"$X c #62ACE5",
"%X c #64AEE8",
"&X c #63B2E6",
"*X c #6AB3E6",
"=X c #69B9E7",
"-X c #65B4E9",
";X c #6AB5E9",
":X c #6CBBEB",
">X c #73BAE7",
",X c #72BCEC",
"<X c #6FBFF1",
"1X c #74BEF1",
"2X c #6DC1EC",
"3X c #75C3EE",
"4X c #7AC5EE",
"5X c #76C8E8",
"6X c #77CBEF",
"7X c #7CCAEF",
"8X c #74C3F1",
"9X c #7AC5F1",
"0X c #7CCAF1",
"qX c #90918E",
"wX c #A59B8D",
"eX c #90A09C",
"rX c #A6AA89",
"tX c #B7A888",
"yX c #8FAEB1",
"uX c #ACB1AC",
"iX c #CABB84",
"pX c #CBB98E",
"aX c #9DC3B7",
"sX c #CBC685",
"dX c #D2C48A",
"fX c #D3C795",
"gX c #D1CBB1",
"hX c #E6CFA0",
"jX c #8FB8D0",
"kX c #A4BECA",
"lX c #98C5D0",
"zX c #ADD2D7",
"xX c #84C9ED",
"cX c #84CCEE",
"vX c #91D3EB",
"bX c #83CDF2",
"nX c #89CBF1",
"mX c #89D3F5",
"MX c #8CD3F5",
"NX c #92D5F6",
"BX c #97D9F6",
"VX c #95DAF9",
"CX c #9BDBFA",
"ZX c #A4D8EA",
"AX c #B7DDEB",
"SX c #A5DDF5",
"DX c #A8DEF7",
"FX c #9BE1F7",
"GX c #AFE2ED",
"HX c #AAE2F8",
"JX c #B8E6F7",
"KX c #D1DFD5",
"LX c #C5E6ED",
"PX c #C3EAF9",
/* pixels */
").).).).).).).).).).).).).).).).).).).).).).).).).).).).).).).).).)._._.).).).)._._._._._._.XXXXXXXXXXXXXXXX[._.oXoXoX`.{.`._.`.",
"_. X)._.).).).).).).).).).).).).).).).).)..X.X.X.X.X.X.X_._._._._.XX[.[.[._.[.[.XXXXXXXXXXXXXXXXXXXXXXXXXXXX_._.{.{.{.{.{.{.{.{.",
"`. X.X_.).).).).).)._._._._._._._._._._._.XXXXXXXXXXXXXXXX[.[.[.[.[.[.[.[.[.[.[.[.XXXXXXXXXXXXXXXXoXXX{.oXoX{.{.{.{.oXoXoXoXoXoX",
"^.{.[.[.[.[.[.[.[.[.[.[.[.[.[.[.[.[.[.[.[.[.[.[.XXXXXXXX[.[.[.[.[.{.XXXXXXXXXXXXXXXXXXXXXXXXXXXXoXoXoXoXoXoXoXoXoXoXoX$X$X$X$X$X",
"Y.'.{.XX[.[.[.[.{.XXXXXXXXXXXXXXXXXXXXXXXXXXXXXX{.{.oXoX{.{.{.{.{.{.{.{.{.{.oXOXXXXXoXOXOXOXOXOXOXOXOXoXoX$X$X$XoXOXOX$X$X$X$X$X",
"` !.[.XX{.{.{.XXXX{.{.{.{.{.{.{.{.{.{.{.{.{.{.}.}.}.OXoX}.}.}.}.}.}.OXOXOXOXOXOXOXOXOXOX@X@X@X@X@X$X$X@X$X$X$X$X$X$X$X$X$X$X$X$X",
"` [ '.oXXXoXoXoX}.}.}.}.{.{.{.{.{.}.}.}.}.}.}.}.OXOXOXOXOXOXOXOXOXOX+X+X+X+X+X+X@X@X+X+X+X+X+X+X+X$X$X$X$X$X$X$X$X$X$X%X%X%X%X$X",
"U.[ T.].OXOXOX}.}.OXOXOXOXOXOXOXOXOXOXOXOXOXOXOXOXOXOXOX+X+X+X+X+X+X+X+X+X+X+X@X@X@X@X+X+X+X+X$X$X$X%X$X%X$X$X$X$X$X*X*X*X*X*X*X",
"T U.[ !.$X+X@X+X$X+X+X+X+X+X+X+X+X+X+X+X+X+X+X+X+X+X+X+X+X+X+X$X$X$X+X#X&X&X$X&X&X&X&X&X&X&X&X&X&X-X-X-X-X-X*X*X*X*X*X*X*X*X*X*X",
"6 Y.U.U.'.$X@X%X$X$X$X+X$X#X$X+X$X$X$X+X+X+X&X+X#X#X&X#X&X$X$X&X&X&X&X&X&X&X&X;X;X;X;X&X&X-X-X-X-X*X*X*X*X*X*X*X*X*X;X;X;X;X;X*X",
"4 T.E.U.U.|.@X#X+X&X&X&X#X#X#X#X-X&X#X&X-X-X&X-X-X-X&X&X-X-X-X-X-X-X-X-X-X-X-X-X-X-X-X;X*X*X;X;X;X;X*X;X;X*X*X*X*X*X*X*X*X*X*X>X",
"4 T.E.T.U.` |.;X-X-X-X-X-X-X-X-X-X-X-X-X-X-X-X-X-X-X-X-X-X-X-X-X-X-X-X-X;X;X;X;X;X;X;X;X;X;X:X:X:X;X:X,X,X>X>X>X>X>X>X>X>X>X>X>X",
"6 E.E.E.T.` |.;X-X;X-X&X*X|.|.&X-X;X-X;X;X;X;X;X=X=X=X=X=X=X=X=X=X=X=X=X=X=X:X=X=X=X=X:X:X:X,X,X,X,X,X,X,X,X>X,X>X>X,X,X,X,X,X,X",
"6 E.E.E.E.R |.-X-X*X].|.>X!.!.*X:X:X=X=X=X=X=X=X=X=X=X=X:X:X:X:X:X:X:X:X:X:X:X:X:X:X:X:X,X,X1X1X1X1X1X1X1X,X,X,X,X,X,X,X,X3X3X3X",
"6 E.!.E.!.E.>X:X:X>X|.Y.|.T.0 |.1X:X:X:X:X:X:X:X2X2X2X2X:X:X2X2X:X:X:X:X:X:X:X<X<X<X<X1X,X,X1X1X1X1X1X1X1X1X3X9X9X9X4X4X4X4X4X4X",
"6 E.!.E.^.~.>X:X3X2X>XE { { 8 R.>X<X,X,X2X2X,X,X2X2X2X2X8X8X8X8X8X8X8X8X8X3X8X8X8X8X8X8X4X4X4X4X3X3X3X3X3X4X4X4X9X9X9X4X4X4X4X4X",
"6 E.!.!.^.~.,X8X2X2XjX<.+.z y E /.>X3X8X8X8X2X2X8X8X8X8X8X8X8X8X8X8X3X3X3X3X8X8X8X9X9X9X4X4X4X4X4X4X4X4X4X4X4X4X4X4X9X9XxXxXxXxX",
"6 E.!.!.^.^.3X8X8X,XjX<.X.>.+.D _ [ Q.|.4X8X8X3X3X3X6X6X7X7X4X4X3X4X7X7X7X7X4X9X9X9X9X9X0X0X0X0X7X4X4X4X4X4XxXxXxXxXxXxXxXxXxXbX",
"6 !.!.!.^.^.4X6X8X5XyXz.@.*.X.j -.~ Z Q (.5X4X9X7X7X7X7X0X0X0X0X0X7X7X7X7X7X0X0XbXbXbX0X0X0X0X0XbXbXbXbXbXxXxXxXxXxXxXxXxXnXnXnX",
"Y ~.^.!./.^.4X0XxX(.tX@.@.+.u u ! =.+.$.' Q.xX0X7X7X7X7X7XbXbXbXbXcXcXcXcXcXcXbXbXbXbXbXbXbXbXbXnXnXnXnXnXnXnXnXcXcXnXnXnXnXnXnX",
"U.!.^.~.^./.xXcXjXl.u.+.p y F u ~ ~ +.+.F W R.lXcXbX7X7XcXcXcXmXnXmXmXnXmXmXmXnXmXnXnXbXbXbXmXmXmXmXmXmXmXMXnXnXMXMXMXMXMXMXMXMX",
"Y.^./.^./.'.bXbXjXwXu.-.p p D h ~ l t D D D ! { lXcXmXcXcXmXbXmXmXmXmXmXmXmXmXMXMXMXMXMXMXMXMXMXMXMXMXMXMXMXNXNXNXNXNXNXNXNXNXBX",
"Y.E.^.^./.'.bXnXyXz.>.+.F F X.h ' 8 - z d D D G Q yXMXmXmXmXmXmXmXmXMXMXMXMXMXMXMXMXMXMXMXMXNXNXNXNXNXNXNXNXBXBXBXBXBXBXBXBXBXBX",
"Y.!.!.^./.'.xXyXqXz.-.h =.h j z ' 0 y F t h m m D Z yXvXNXNXMXNXNXNXVXVXVXVXNXNXNXNXNXNXNXNXVXVXVXVXVXNXVXBXBXBXBXBXBXBXBXBXBXBX",
"R Y././.'.|.zXwX<.<.F F u t u G P 5 u D h s h h h n Z qXyXvXNXBXBXBXVXVXVXVXVXVXBXBXBXVXBXBXBXBXVXBXBXVXBXBXCXCXCXCXCXCXCXCXCXCX",
"Y.!./.~.'.(.uX-.$.F ( ( k 8 ' ; # o F d f f s t h h D F =.{ yXZXBXCXCXCXVXCXCXVXVXCXCXCXFXCXCXCXCXCXCXCXCXCXCXCXSXSXSXSXSXSXSXSX",
"E.!.^.^./.Q._ G F ( W ! ! 0 % % Y % y j d d d t h d d +.$.*.:.eXZXFXFXFXFXZXSXDXDXSXZXZXSXSXFXSXSXHXHXHXHXDXDXDXDXDXDXDXDXDXDXDX",
"T.!././.` { , 2 Z ! 8 9 0 Y 0 Q.lXP - d s s s s t s d j +.*.*.=.qXzXSXZXZXlXlXuXwXl.<.<.qXkXDXHXHXDXDXHXDXDXDXDXDXDXDXDXDXDXDXDX",
"U.(./.Q.Q.{ Z 2 C q % q Q.yXjXZXHXyX; r t a a s s d X.@.#.#.#.} X.-.<.<.-.-.u.@.o.o.,.,.$.~ yXDXHXZXHXDXDXDXHXHXHXHXHXHXHXHXHXHX",
"T U.Q.R.uXqX9 C 2 { qX0 T.jXGXHXHXAX] - r e t s s | ,.F.#.#.*.X.| #.@.#.#.O.#.&.*.X.X.>.G.-.G uXlXQ.aXzXlXZXHXJXJXJXJXJXJXJXJXJX",
"T T Q.eX{ ' qXwXqX[ yXjX(.ZXHXHXHXGXyX+ w w e s s *.F.F.#.o.@.X.X.O.O.O.O.o.o.o.&.*.X.X.u.>.n N l.^ 2.4.4.yXyXyXlXAXJXJXJXJXJXJX",
"T P { ] ] Y { yXAXAXJXJXDXJXJXJXJXGXAXR.= - w a j F.F.F.o.} X.@.#.o.....o.....o.o.*.#.X.X.$.h u N J ^ 2.2.4.] 4.eXzXlXGXJXJXJXJX",
"I P ] ] ] 0 Q.Q.GXGXJXJXJXJXJXJXJXJXJXAX8 - w a @.F.F.,.X.g j *.,.X. . . ....... .o.*.X.g +.f r i V H ^ ^ _ _ ^ 4.Q.yXJXPXPXPXPX",
"T P 0 ] ] q Q Q.zXGXJXJXJXJXPXPXPXPXPXPXQ o - f &.F.F.*.X.g m *.,.| } }  ..... .} } X.@.a h r w w b B H H J B J _ ] yXAXLXLXzXAX",
"T P E { ] Q 9 ^ Q.yXzXLXPXzXyXaXyXzXPXPXP X * m ,.F.F.@.} g m $.*.f g } }  .} } } g g +.h t r u t r B H B B B H J A l.yXaXeX4.4.",
"T P C ' ] E < S _ 4.eXeXrX4.) / S 4.KXKX7 X - +.#.,.&.| d d j @.+.t a g g } } } g g f m D w a h d i v x B B H B B H K ) 3.3.3.w.",
"P 5 W { ] q < / ( :.j.j.j.c.8.;.L L :.{ % & y h X.&.@.f a s g +.h - t d g g g g g a a f h t f f t i H v b H H v B J K K L L ) ) ",
"P % ! W Q q 9 N G ;.j.j.e.x.;.%.;.;.;._ 2 - p w d +.f t t a a j u - t a a g g g a t w - * h g a r r b H B B K b x B H K L K L K ",
"6 U 5 8 E c 2 Z ( ( :.:.:.z.:.( ( ( ( N p u h t w h h t w t s d y * t d a a s s t r - o o u t e w 1 v v v B V V K V M 9 , , 1 3 ",
"@ 7 $ E { Q 2 _ <.j.c.c.c.A.z.<.c.j.:._ -.h D d z e u - w u t r * y s s a t r w - * o X X * * - - 2 M v , , = 1 k 9 3 < 3 1 3 M ",
".   7 E C O 8 ~ :.l.z.j.c.tXpXz.tXc.:.N :.=.u - z w - y m r - & & u f t w - * & o o X X X X & & * = 3 S 3 c 9 S _ K L K b B B S ",
".   + W C O 8 :.:.:.j.j.c.A.z.j.j.j.z.:.z.:.& & * * o r $.h * X o & * * & o o o o X X X k o ; * = 8 , W M M 1 V / L K L V H V M ",
".     7 q % < ;.7.7.%.%.%.a.L %.%.L 8.;.L G o X X o o p *.m - o X X o o & = 2 Z ; X X + / = y r 2 N C C Z k k N M N V v N N S 9 ",
"@ .   . @ q > 7.q.5.f.q.6.t.t.0.5.q.0.t.t.j.; X X   8 F $.f u / W ! ~ ( :.:.z.x.W X X ; l.2 p D n S < 8 2 , = k l k i i N N S 2 ",
"@ .     @ $ < r.y.r.r.b.b.b.b.b.b.b.f.f.f.a.N 2 X X _ ;.n t i y.k.f.q.7.7.0.q.0.( X X X _ ; p j n :.wXW wXc.k.k.! :.) e.y.e.w.M ",
"O .     % O > w.9.s.9.r.9.9.7.y.y.y.b.C.n.n.8.$.* . ) 6.n t r q.f.f.f.n.s.f.f.f.b.< # X W 2 r p p w.G S / ) w.e.G k.k.y.x.x.k.S ",
"% .   . % O + / y.b.s.b.b.s.s.s.n.b.n.V.n.B.H.&.G X w.h.D h r b.B.C.B.B.K.B.B.B.B.w.% X + 8 * - y x.w.M ;.;.;.) S S V V V K L S ",
"> .   . O O   < Z.N.N.V.S.S.C.D.L.L.L.L.D.sXJ.u.>.; j.H.$.h p Z.V.C.C.C.C.D.D.C.P.V._ X . 9 = - i M.N.b.7.y.e.e.S :.( S M M M M ",
"> O   . $ @ . < v.V.N.N.V.V.D.D.C.C.D.I.D.I.I.m.u.N Z.D.&.m n b.B.V.S.S.sXsXfXfXsXfXtX+ X 3 1 n n 0.9.9.9.s.y.b._ w.k.s.b.v.k.S ",
"> O   @ 7 % % + Z.C.s.f.V.L.D.L.L.L.D.I.I.I.L.m.,.$.V.B.u.X.F g.f.B.D.D.I.D.J.D.S.D.S.S 2 Z i p n r.9.3.1.1.9.s.Z.b.9.r.9.L V c ",
"7 %   . 0 7 7 O k.b.f.V.V.f.C.D.D.L.I.J.I.sXD.h.*.>.B.m.&.m $.A.n.B.B.C.C.n.m.D.J.V.V.e.< ! G p G D.V.V.N.N.N.V.N.N.N.V.b.k.v./ ",
"q %   @ $ 4 % . < , < 3 v V f.n.C.m.D.I.C.C.V.u.$.F n.i.$.X.$.M.V.g.t.f.B.B.B.m.n.n.m.w.~ / L k V V.C.C.D.V.V.L.S.S.V.V.V.S.N.v.",
"P %   @ 4 4 .   . @ @ $ 3 r.f.C.m.H.J.J.C.C.M.p.G G M.g.$.n F a.f.B.f.s.f.f.f.m.m.n.n.y._ ( ) M S b.n.V.V.V.S.D.S.L.S.V.V.C.f.s.",
"6 $   @ 4 4 .   @ $ % > w.b.C.M.C.H.H.J.V.M.g.b.<._ n.C.x.:.w.g.B.V.B.f.s.t.f.g.f.s.f.y.N / w.S K y.t.s.t.s.b.S.S.V.D.S.S.D.B.f.",
"4 @   @ 6 @     . + / w.m.m.C.J.C.h.g.g.0.i.0.e.R.{ y.h.rXeXl.n.f.V.V.s.f.9.5.0.5.1.5.L Z K ) ! ) b.n.f.t.s.y.s.b.N.N.V.C.D.N.V.",
"4 @     $ @     8 / y.8.8.i.M.p.H.M.i.C.M.m.g.k.Q.R.b.h.rXQ.4.y.t.q.y.7.B , O O : : O : C k , / ) y.f.0.7.7.y.9.9.r.s.n.D.n.B.N.",
"4 @     @ .   . 9 e.t.q.f.i.A.p.m.g.h.i.q.y.;._ uXqX) K S eX{ 1 3 3 < + $ $ @ @ @ @ $ 7 gX! 9 ( L f.t.y.y.y.9.9.0.q.t.f.t.q.f.n.",
"$ @       . . + 1 x.i.i.i.g.h.M.h.8.7.v , + + C uXqX+ O C uXqX7 % O $ % 7 q 7 > < 9 k l.gXtXk.pX8.i.q.q.t.a.f.t.0.t.0.t.7.t.0.t.",
"@ @   % $ 7 q / ) 8.i.f.p.t.7.;.i , < < 7 9 C l.qXE % 9 Q qXW.q / / w.k.k.k.r.r.r.y.f.n.Z.A.A.J.x.n.g.f.f.f.m.a.i.a.t.t.8.7.%.5.",
"@ $ < C l.c.b.S.A.b.m.h.x.L N N ! ( L y.x.y.Z.gXgXq 9 j.c.wX' A s.M.J.m.t.t.f.f.t.t.q.0.8.a.M.C.J.J.M.a.t.g.n.n.i.q.q.i.i.q.5.5.",
"@ % c 3 / k.t.a.M.M.m.a.y.A.J.S.J.M.C.h.f.h.x.fXtX! G k.pXgXuXj.g.i.M.H.m.n.q.s.q.f.f.7.s.7.0.a.g.m.M.H.h.i.n.q.a.f.q.t.f.a.8.8.",
"@ O O + + N S.J.J.J.S.S.M.J.iXiXJ.J.C.J.h.m.J.pXtXc.A.A.fXpXtXx.i.f.g.m.m.m.q.q.s.q.q.L 7.7.q.t.i.p.p.h.M.g.0.i.f.a.t.i.a.p.a.t.",
". $ + % 8 ( pXiXdXdXJ.J.J.sXdXiXiXJ.iXdXJ.sXiXiXS.A.x.A.S.A.x.a.t.t.f.m.g.g.i.f.t.i.q.8.7.7.5.q.0.8.0.i.m.m.p.M.g.a.n.t.a.a.a.0.",
"$ > W l.tXA.dXJ.I.sXS.sXS.iXdXdXdXhXhXhXfXiXJ.iXS.J.a.q.y.x.g.f.g.n.g.n.i.m.a.h.i.a.i.0.9.7.0.7.5.%.7.7.a.M.m.M.g.0.0.7.5.0.a.a."
};
