/* XPM */
static char *_942ea082c7c47fac13e9ad79d9194f9EkV8386nMF53O8pu[] = {
/* columns rows colors chars-per-pixel */
"64 64 249 2 ",
"   c #1A190D",
".  c #0F0E10",
"X  c #151315",
"o  c #191716",
"O  c #1C1A15",
"+  c #15151A",
"@  c #1B1A1C",
"#  c #231D1B",
"$  c #251D18",
"%  c #1B211E",
"&  c #24211D",
"*  c #2B221C",
"=  c #2A2918",
"-  c #35281C",
";  c #2F3218",
":  c #1C1C23",
">  c #241E24",
",  c #321E20",
"<  c #1E232A",
"1  c #242323",
"2  c #2A2523",
"3  c #2B2A24",
"4  c #27282A",
"5  c #332A24",
"6  c #342B28",
"7  c #2D312D",
"8  c #373629",
"9  c #373835",
"0  c #3B3D3D",
"q  c #482F28",
"w  c #463729",
"e  c #443A36",
"r  c #623629",
"t  c #36421F",
"y  c #3B4529",
"u  c #3B4334",
"i  c #3D423C",
"p  c #46462A",
"a  c #51512F",
"s  c #494937",
"d  c #44433C",
"f  c #4C423B",
"g  c #554937",
"h  c #585538",
"j  c #605A27",
"k  c #665B39",
"l  c #596020",
"z  c #69653D",
"x  c #716B34",
"c  c #797939",
"v  c #2C3549",
"b  c #3B3E42",
"n  c #393C47",
"m  c #433C42",
"M  c #793D46",
"N  c #3E4142",
"B  c #3D4746",
"V  c #434444",
"C  c #474745",
"Z  c #4A4A45",
"A  c #464A4B",
"S  c #4B4D4B",
"D  c #554C46",
"F  c #4D524B",
"G  c #53534D",
"H  c #585649",
"J  c #474C51",
"K  c #4D5153",
"L  c #535453",
"P  c #575756",
"I  c #5B5A54",
"U  c #5B5C5A",
"Y  c #744E4B",
"T  c #645848",
"R  c #645C56",
"E  c #5A624A",
"W  c #5D635A",
"Q  c #696648",
"!  c #756948",
"~  c #787548",
"^  c #64625C",
"/  c #6B645D",
"(  c #686858",
")  c #756A57",
"_  c #6C7352",
"`  c #787659",
"'  c #4D5567",
"]  c #585C63",
"[  c #5E6164",
"{  c #5C6676",
"}  c #646562",
"|  c #666967",
" . c #6B6A65",
".. c #6B6D6B",
"X. c #746B66",
"o. c #6E7169",
"O. c #777668",
"+. c #73726C",
"@. c #6B6C78",
"#. c #6D7172",
"$. c #747572",
"%. c #797976",
"&. c #883434",
"*. c #A63D3B",
"=. c #8B403B",
"-. c #A8423E",
";. c #82773E",
":. c #993C43",
">. c #93494C",
",. c #89575B",
"<. c #97575A",
"1. c #AF4C4F",
"2. c #B95658",
"3. c #837A4A",
"4. c #847B58",
"5. c #B75A60",
"6. c #8A746D",
"7. c #B36A6D",
"8. c #C7595B",
"9. c #CE605D",
"0. c #C45B61",
"q. c #C36469",
"w. c #7B833A",
"e. c #7B844F",
"r. c #7D8178",
"t. c #8C8B35",
"y. c #9CA33B",
"u. c #A9AC3A",
"i. c #C4C83B",
"p. c #86874B",
"a. c #989848",
"s. c #878759",
"d. c #928A58",
"f. c #8F9058",
"g. c #999658",
"h. c #A29B4B",
"j. c #A49C5A",
"k. c #9AA551",
"l. c #B7B948",
"z. c #ADAE51",
"x. c #A9A55A",
"c. c #B6B758",
"v. c #898865",
"b. c #968D67",
"n. c #8C916E",
"m. c #999568",
"M. c #8A8776",
"N. c #938C78",
"B. c #9B9777",
"V. c #A49964",
"C. c #A39C64",
"Z. c #A49C6A",
"A. c #A39E74",
"S. c #9EA16D",
"D. c #A6A363",
"F. c #ACA865",
"G. c #A4A26C",
"H. c #AAA46C",
"J. c #ADAB6C",
"K. c #B3AB64",
"L. c #B3AB6D",
"P. c #B7AD6C",
"I. c #AEB166",
"U. c #B3B36C",
"Y. c #B8B668",
"T. c #AAA472",
"R. c #ADAA73",
"E. c #A7A578",
"W. c #ACAC7B",
"Q. c #B2AC73",
"!. c #B2AD7B",
"~. c #B8AD7B",
"^. c #AEB076",
"/. c #B5B374",
"(. c #BAB475",
"). c #BABA73",
"_. c #B5B37C",
"`. c #BBB67B",
"'. c #B7B878",
"]. c #BCBB7C",
"[. c #C2BE64",
"{. c #C2BD7D",
"}. c #BCC350",
"|. c #BDC170",
" X c #C6C954",
".X c #C6C664",
"XX c #C4C47A",
"oX c #58688A",
"OX c #707989",
"+X c #AC7C83",
"@X c #7C8992",
"#X c #8F8F8F",
"$X c #999588",
"%X c #AB938F",
"&X c #A8A787",
"*X c #B3AC84",
"=X c #B7B485",
"-X c #BAB584",
";X c #BDBB84",
":X c #BEBB89",
">X c #A9A798",
",X c #B0AC93",
"<X c #B6B399",
"1X c #9096A8",
"2X c #B09AA3",
"3X c #97AAB6",
"4X c #98ABB7",
"5X c #ACA8A7",
"6X c #B2AFAA",
"7X c #B7B4A7",
"8X c #A6ABB5",
"9X c #A7B5BA",
"0X c #B7B6B7",
"qX c #D18E90",
"wX c #E49E9D",
"eX c #C1BE84",
"rX c #C3B78D",
"tX c #C1BE8A",
"yX c #C4BB92",
"uX c #C7AEAB",
"iX c #D8A9A7",
"pX c #C7B7B7",
"aX c #DAB6B8",
"sX c #E5B3B5",
"dX c #BDC282",
"fX c #B5C1BF",
"gX c #C2C184",
"hX c #C2C18A",
"jX c #D2D18B",
"kX c #C8C596",
"lX c #CDC8B0",
"zX c #E0DFAA",
"xX c #99B0C1",
"cX c #A9B9C4",
"vX c #B2BBC3",
"bX c #CFBDC2",
"nX c #B7C4C8",
"mX c #B3C5CF",
"MX c #C8C9C9",
"NX c #D2CDCB",
"BX c #D5D3CD",
"VX c #C5CCD2",
"CX c #CCD2D4",
"ZX c #CAD4D9",
"AX c #D5D7D8",
"SX c #E4CAC9",
"DX c #E4D8D9",
"FX c #D9E3E6",
"GX c #E4E5E6",
/* pixels */
"T T D g D D D H H G d Z H R ^ / ^ +. .^ / ( ) ) ^ }  ...%.$.U W P ] | } ^ C N i N P ..L A V 0 0 0 V G ..0 L W ^ s s 8 9 i F y ; ",
"T T D D D T R H D G e G I / X./ } %.$.^ / ) 4.` ^ ..|  .%.%.^ U P [ #...} F N N N K ..W P K b V K P } $.U ..| ^ F F d s s s ; ; ",
"D f D T T H T H G I d G H R X./  .$.+./ 4.6.6.` X. ... .%.$.U L K [ #.#.| L V A V L ..| %.$.V C U ^ | r.......[ F F S F y t y 8 ",
"f f H D D H I R G G C G G I O.X.} .. ./ ) ) ) / / /  .} %.+.G S K [ #.#.| F C A A U +.} r.#XZ A U U W r.| ....} V S C Z y y ; ; ",
"D D H f f H I L S S G Z Z I 6./ U +.X./ X. .^  .X./ P ^ $.$.G C A ] #...} C A V N U o.I W %.S V S F L %.} | | [ N i i i i 9 y ; ",
"U G V d d Z G S Z L S G D R I ^  . .+.X./ R @X#X%.R U U $.%.U C A P #.| | F P b n P  .G F P V 0 V S P ..W | | U C 0 i V N i u 9 ",
"L S V V Z S G G V S Z G I I I U U +.+. .I $.OX' ' ] L S $.%.P A S P #.} ..P } V J K | L L S V 9 0 A [ | ] ..| I Z V V 0 0 9 9 9 ",
"C C C C Z Z S S C L L d Z G ^ U  .+.R P ^ P v < v { L S ..%.P K K L #.[ | S P A J K | F K V V b b N P | ] ..} I S N N 0 0 0 N i ",
"V V C C C L S S S Z Z V G G / } R U P L L [ ] J B n L L #.%.P L K L ..L F N B N N S  .C V V V N n b b B ] | } L Z V b V 0 9 9 0 ",
"V C Z Z S L S L G C 0 0 Z I  .P G U P S L U e m f e P L ..$.L S S S P A N b B b i A } F V V N N N N 0 N P ] | I Z Z N S N 0 0 V ",
"V Z S S S L P P U S 9 0 Z Z Z ^ U G U U U R e T T e S S ..$.I G L L V C N N N N i Z W P C C Z d Z G F F U U | } U  .G I G G G L ",
"Z G P U L L P U ^ L u 9 S G G I ^ X.%.X. .R U I C C : 4 S %.O.o.o.%.G o.+.W ( O.o.o.^ ( / O.` ` ( O._ O.( G ^  .| ` ( ( ` ( ( ( ",
"C ^  .O.+./ ^ ^ X./ C f H Z I %.#X+.^ +.+.} 4 L 8X} @ @ X d $XM.M.#XO.$X&Xn.n.&X&X&XN.$X$X,X&X&XB.&X$X&XB.O.M.N.6.A.m.v.v.4.4.b.",
"M.&X&XB.N.N.N.B.A.B.f D 6.>X7X7X<XN.%XN.R 7 @ < OX@.@ + @ 7 7XlXlXlXkXkXkXkXkXkXtXtXyXyXyXrXrXyXrXyXrXrX-X=X-XE.B.`.(.(.(.Q.Q.L.",
"v.b.m.m.4.m.Z.H.T.T.T I N.A.A.m.v.! ! T 8 # + + : [ @ + + @ %.-XQ.{.(.(.`.`.`.].(.).(.(.(.(.(.(.P.P.P.L.L.R.Q.H.b.P.K.K.K.K.F.K.",
"d.d.4.4.4.V.K.K.F.j.k D s.3.v.3.` g ) 8 8 @ + @ : : @ @ + @ O T.F.K.K.K.Y.Y.Y.Y.Y.Y.I.L.P.P.P.P.L.L.L.L.K.L.L.D.b.K.x.x.x.x.j.j.",
"! x Q ) d.m.c.h.d.f.T g Q T s.~ ` f 3 & 9   : : : @ X X + 0 X a x.D.T.H.!.XX.X.Xc.l. XY.'.Q.F.K.L.~.Q.C.x.C.F.x.p.T.Z.j.F.F.V.b.",
"l.g.4.s.d.j..X).Z.x.~ Q ! ~ F.p.` 8   5 X.s   5 + @ X + + : @ e R.E.T.Z.T.].I.}. X X XjXtXZ./.c.T.C.K.j.Z.D.D.R.B.lXH.j.Z.j.x.K.",
"i.Y.m.d.g.l. XzXjX}.^.-Xz.y.t.f.` *   d H ` + p   + 0 + X o @ p XXD.rXT.jX).|.t.l.l.l.c.K.z.z.Y.Y.j.L.g.C.c.l.Q.~ d.j.j.V.K.K.l.",
"z.z.c.XX;XXX|.I.c.XXI.|. Xu.c s.a 3 # 6 h p.: 7   @ @ @ X : @ a y.x.J.[.g.}.l.w.w.z.c.K.K.Y.}.a././.x.a._.I.c.;X~ 4.V.x.x.c.K.h.",
"z.z.}.jXzXY.m.G.g.R.Y.}.u.l.g.Q 9 @ @ d ` c.w.; 7 @ @ : X 1 @ 0 _ B.z.u.~ |.k.h e.e.A.;XJ..X X{.!.f.a.F.G.kX;XG.4.d.j.[.x.c.Y.w.",
"u.u.c.`.gXE.~ c p.f.c.u.y.y.p.8 2 1 X u _ z.y.e.< @ ] K : @ 4 S @.S s.p v.kXp.y _ e.h g.x.y.l.C.m.`.p.c p.=XlX/.x 3.a.h.h.a.a.x ",
"i.l.Y.R.f.f.f.g.a.kXjXt.c ~ _ 9 1 X . d 8 x c ~ X B #X1X@.4 : X 1 + : 1 e.k.l ; u y p S.x.x x.b.s.=Xz b.3.3.~ z k j ;.h.t.j j a ",
" Xz.3.g.D.a.H.z.c.-XV.3.k Q h 8 X X . 2 8 5 ; Q $.4XoX1X' #X' : + + o 8 e.k.l = 7 8 y a c l j z k Q s g Q z k ! ) ) s.! k g T a ",
".Xt.x x.XXx.a.x.d.! ;.c a j z 3 X X . # 5 9 - a 5XcX@XoX{ ' v > > . & 3 _ _ ; 7 7 1 8 y a a g ` k a g w h h Q X.X./ ` k g e g w ",
"K.g.h.x.D.x.C.d.H ) g p f e s 9 2 X X X 9 - 5 9 1XcX3XoX1X4 n 4 @ @ @ C H s 7 4 4 % 4 3 u s f h h h g 6 5 8 e R R T T h g T Q Q ",
"z c t.x ! ;.4.p.z H h s P P g d 3 @ @ @ 9 5 - b vXcXOXv n 7 : 4 1 : 1 b n.p 8 3 1 4 4 4 3 s f f T D w 9 1 6 6 d H s T g R 6.%X<X",
"z k z a h ! z Q h h a s s 9 9 L 4 @ X o 0 9 $XGXGXxXOX< 7 4 : > 9 m 2 3 %.i 9 9 8 9 4 4 9 e U D f 8 9 e 6 e 3 7 U G R R 6.6.M.B.",
"k h Q w a _ v.` _ ` Q W H H W / d O     9  .MXBX0XmX{ < b 9 4 4 2 2 2 # 4 7 P G I W i 3 8 ( O.$XM.N.( u 9 f f G $.#X6.O.6.6.N.` ",
"$X#X$X#X#X>XMX0XpXpX5X6X0X5X6X>X} 9 @ % G G 0XCX| 1X@.< [ 1 4 @ 3 # 2 # 7 @ [ %.$.%...} |  .%.M.#X$XX./ ^ O.M.lX6X6Xv.` 4.4.s.e.",
"CXCXZXCXCXCXVXMXMXnXmXmXnXMXnX0X1Xm > m V C 0XZX#Xn J 4 U 4 0 # 3 # 3 2 4 % K fXnXnXnXnXnXnXMXMXMXVXCXAXAXBXVX8X0XCXNXMXMXMXlXMX",
"MX2X6.<.,.,.,.,.,.+XbX5X) ,.,.,.,.Y R D f P 8XnXJ + X m V 9 1 3 3 2 6 6 2 6 4 OX8X6X,.6.6.6.6.6.7.$X0XvXnXnXnXcXcXcXvXvXvX8X%X$X",
"MX7.1.1.1.1.2.2.1.1.iXuX2.2.1.2.2.1.>.g f $.8X4Xn + . OXV 6 6 & 8 * 5 * , * 8 e 2XpX1.*.*.*.*.*.&.&.7.bXnXnXvX4XcXcX9XcX8X,.r r ",
"NX5.8.qXiXiXiXwXq.q.iXpX5.8.wXsXsXsX,.e e X.8X9X0 : @ %.7 5 e 3 3 O # $ $ @ 3 q X.pX>.-.5.7.7.7.1.*.q.NXAXZXZX4X9XmXVXVX0X<.-.1.",
"SXq.0.iXDXFXFXDXaXSXDXpX5.8.SXFXFXFX/ D g / 5XvX9 X + S # 5 6 3 @ o o o # @ 1 e X.bXY 1.iXBXCXCX%X*.8.SXZXAXZX8XcXmXCXCX0X<.*.qX",
"SXq.0.iXFXFXFXFXAXAXDXuX5.2.iXpXpXpXD f g f C 7 + @ X O 2 5 - 2 # @ @ @ @ @ # 6 @ V 2 >.uXNXNXCXA.-.9.SXAXAXZX8X9XmXCXCX0X1.1.wX",
"pX1.1.2XMXVXVXvX0X0XvX#X&.:.>.=.=.k r p p g 8 e 4 X O   $ - * * * & # & & # * 3 1 o q M >.<.<.<.>.*.5.MXVXVXmX4X9XmXVXVX0X<.*.qX",
"6X>.:.+X0X0X0X5XY ,.5X%X>.>.<.<.<.<.Y w q w w 6 3 O 1 o O - - $ * * * $ & * - 5 $X%XM &.&.&.&.&.&.&.7.pXnXnX9X3X9XcXcXcX1XM &.+X",
"NX5.2.2.7.7.7.7.2.2.iXuX2.2.SXSXSXSXDXD q q w 8 2 @ 2 & o $ * * * * 3 * & * - 6 #XuX1.1.qXuXuXuXuX2XpXVXnXnXnX4XxX9X9X9X2XY &.7.",
"BXqX0.0.0.0.0.0.9.q.SX7X5.q.SXAXDXAXAX6Xe 6 $ 2 X O 8 5 # O * * * * & $ # $ * * 9 iX1.1.iXBXBXCXCXCXZXVXZXZXCX4XxXcXVXVXpX<.*.-.",
"AXDXaXaXaXaXaXaXaXSXDXNXaXaXDXAXAXAXAXFX6Xf 3 3 & 5 q 5 5 $ 1 5 # & O O O $ * 5 6 6.qXwXbXAXAXAXBXBXBXBXCXZXCX4X4XcXVXZXMX%X1.1.",
"AXAXFXAXAXAXBXAXAXAXAXAXBXBXBXBXBXBXBXBXBX5Xe 5 $ f R w 8 * * * 2 #   & >XpX5 5 5 D AXBXAXZXZXZXZXCXCXCXCXNXNX3X4XcXVXVXMXMXbXSX",
"7X6X5X>X>X>X,X,X,X>X>X<X7X7X<XpX7X7XpXpX7XpX%Xw q 8 >X6.q - * e 2 #   L 6XpX%X- * 6 0XNXMXlXlXlX7X7X7X7X6X6X7X3X3X1X#X$X>X6X6X6X",
"B.B.m.m.n.n.n.v.v.v.v.s.e.e.e.s.s.s.s.` ` ~ ! Q q 5 w k w q 5 h p - @ : 9 _ Q s * # X.B.$X&X&X,X<X<X,X,X<X<XB.r.@XZ s H M.$X7X7X",
"].dXdXdXdXdXdXdXdXdXeXeXgXgXgXgXgXgXgXgXdX|.].;Xk - = B.g - - _.`.S.8 o 1 ,X_.W.p $ ` ^.^.W.^.R.R.R.G.G.m.g.f.f.f.s.s.e.` ~ ~ ~ ",
"XXXXXXXXXXXXXX{.{.{.{.{.{.eXgX{.{.XXXXXX].].XXXXeXt - a g - w ].|.).E.= : &X).'.~   5 W.).).].).).).).).).Y.Y.U.U.I.U.I.J./.U.U.",
";X;X;XeXeXeXeXeXeXtXtXtX:X:X:XeXeXeXeXeXeXeXeXeXeX!.h - 5 - b.;X].).-X` O B.).).!.h O ` _.).`.'.'././././.(.U.U.U.U./.U.U././.U.",
"tXtXtXtXtXtXtXtXtXtXtXtXtXtXtXhXtXtXtXtXeXeXeXeXgXeXrX= > $ B.;X].]._.m.  Q `.{.`.G.  2 B./.{.'.'.'._._._./././.Q.U.J.U.J.J.J.J.",
"eXeXeX;X;XeX;X;X;XeXeX;X;XeXeXgX;XQ.;XeXeXeXeX]./.Q.;X) $ > B.Q._.;X|.C.= w ;X].]./.8 > Q /.`.`.`.`.`.{.].'./.(.'.'.Y./././.(./.",
"R.Q.`.;X;Xg.p._.eX;X;X;X`.`.;X;X;X;X`.gX;X;X;X;X;X_.`.W.f o M.=X-XU.).m.& * m.).].`.A.X 3 _.~.`.`.`.`.`.`.L.C.Q././.U.'.(.(.`.Q.",
"m.tX;X;X;X_._.;XeX;X:XtX;X;XtXtXtXhXtXtX_.;X:X;X;X:X`.;XT # = 4.*X_.dXp : @ v.`.`.`.'.n.O H Q.'.'.'.Q.Q.!.!.Q.!.Q.Q.Q.Q.J.R.Q.Q.",
";X;X;XhX;X`.].gXgX;X:X;XhXhXhX;X!._.tXtXtXtXtXtX:XtXeX'.*X$ 6.= H =X:Xs 1 $ v.;X].].).R.g O b./.'.Q._./.Q.Q.Q.Q._.Q._.!.Q.H.H.L.",
"].`.`.eX;X].].;XeXgXeX;XhXhXhXeX;X;XtXhXhXhXeXhXgXeXeX].;Xa G ; O H =XE.h Q E.'.`.`.].).m.  s E._./././.L.J.J.D.J.J.Q.R.J.Q.L.F.",
"/.].].gX].].'.'.'.].gX_.;X;X;XhXeXgXgXeXeXeXeX;X;X].eX].].v.X M.2 2 &XW.^._.].'.].]._./.^.8 O ; W.R.U.U.L.J.J.D.F.x.p.D.D.F.F.K.",
";X;X:X;X;X;X;X;X_.;X;XR._.-XtXtXhXhXtXtXgXgXgXgXgXgX;X].].b.o h v.D A _ _.].'.'.'.).'.).U.v.= = b./.U.U.J.J.J.p.g.D.D.J.D.D.F.D.",
";X!.-X:X:XtX:X_.*X_.;X:XW.;X:XtXkXkXtX:XeXeXeX;X;XeXeX;X].m.# 9 &XB.p H G.].'.'.).'.].).)._.Q 1 8 b._././././._.R.J.J.U.J.F.K.K.",
"-X-X;X:X:X:X:X:X:X:X;X;X!.W.W.*X-X-X-X-X;X;X;X;X;X;XtXtX`.E.D #.,X&Xv.&X;X].].].'.'._.'.(.].d.2 6 Q W./.J.R./._./.H.H.R.H.D.D.F.",
";X-X-X-X:X:X:X;X:X-X-X_.T.T.;X:X:X:X-XW.*X=X=X!.T.A.=X:X_.W.4.I I ( ,X:Xm.C.Q._.!._.-XQ.j.L.Q.Q B.&X_././.Q.Q._./.Q.R.H.G.m.J.J.",
"-X;X;X;X;X;X;X;X;X;X:X;X;X;X;X:X-X-X:X-X:XrXrX*X!.A.4.b.Z.m.Q d ^ 6.b.T.m.m.E.*X!.-X_.!.C.Q.~.W.*XW.~.~.!._.R.Q.R.C.p.G.f.d.D.D.",
"_.`.;X`.'.'.'.].'._././././._.!.W.*X!._.*X=X*Xm.` E h s h D s d i d s h Q n.A.&XA.!.~.!.T.!.!.W.E.*X!._.!.!.Q.Q.T.C.d.H.R.H.H.H.",
"_.`.;X;X;X;X;XtX;XT.Z._.G.W.-X-X_._._._.b.A.T.e.Q Q H H F Z Z s i u u u y 8 8 8 8 p h v.s.! ~ z ~ f.g.G.R.Q.Q.Q.R.J.C.C.g.g.C.C.",
"_._._.;X-X-X-X-X:X-X:X:X-X-X=X_._._.!._._.`._.!.*XW.,X&X&X&X&XB._ H s B B u i i u u u u s 4.b.T.Z.G.G.G.C.D.H.J.Q./.H.H.C.Z.C.C.",
"_._._.`.`._._._._.;X`.`._._._._.R._._.-X_._._._._.`.`._._.-X;X*XB.v.` E E H E  .( E E E Q &XB.G.R.T.T.R.Q.Q.J.L.Q.H.Z.H.Z.Z.G.D.",
"_._.;X;X;X`._.`._._._._._._._._.-X-X_._._.!.-XW.`.`.Q.R.G.Q._._._._._.R.E.E.E.W.W.W.*X*XW.E.E.!.~.!.!.!.W.G.T.H.H.Z.Z.H.d.d.C.C."
};
