/* XPM */
static char *d3cd18fb68fc412cc3b4575db4ae05c6f2xBX2KRByGq34La[] = {
/* columns rows colors chars-per-pixel */
"64 64 256 2 ",
"   c #0C0A0A",
".  c #140D0B",
"X  c #16110D",
"o  c #110F12",
"O  c #181718",
"+  c #25140D",
"@  c #261B18",
"#  c #341211",
"$  c #26241D",
"%  c #2C221C",
"&  c #33231C",
"*  c #39261C",
"=  c #32371C",
"-  c #1E1C23",
";  c #1E1F31",
":  c #231E22",
">  c #291E23",
",  c #221C35",
"<  c #1E2533",
"1  c #232323",
"2  c #2C2423",
"3  c #2B2B24",
"4  c #292629",
"5  c #2D2B2B",
"6  c #342A24",
"7  c #382827",
"8  c #3B2C24",
"9  c #352C2B",
"0  c #2D3125",
"q  c #34332D",
"w  c #3C322D",
"e  c #383A29",
"r  c #2D2C32",
"t  c #2A2A36",
"y  c #362D34",
"u  c #2D3339",
"i  c #343234",
"p  c #3B3334",
"a  c #3A3B34",
"s  c #33353A",
"d  c #3A353B",
"f  c #3D3B3B",
"g  c #551117",
"h  c #761018",
"j  c #482926",
"k  c #5E2223",
"l  c #58292C",
"z  c #43342B",
"x  c #453628",
"c  c #4C3A2C",
"v  c #533C2D",
"b  c #433432",
"n  c #463537",
"m  c #453933",
"M  c #4C3C34",
"N  c #433B3C",
"B  c #4A3C3B",
"V  c #553A35",
"C  c #6C3332",
"Z  c #3A451E",
"A  c #3C4426",
"S  c #3D4737",
"D  c #41471F",
"F  c #434C25",
"G  c #444828",
"H  c #4A532B",
"J  c #474736",
"K  c #4D413C",
"L  c #53453C",
"P  c #584538",
"I  c #4C5337",
"U  c #53563A",
"Y  c #634A3A",
"T  c #6B4F3B",
"R  c #5A653E",
"E  c #2F364E",
"W  c #393A44",
"Q  c #433D43",
"!  c #473D45",
"~  c #573543",
"^  c #703B44",
"/  c #3B4B4E",
"(  c #4B4344",
")  c #48454A",
"_  c #554944",
"`  c #5B4B44",
"'  c #534C4C",
"]  c #584848",
"[  c #5A544B",
"{  c #474854",
"}  c #4B4B5A",
"|  c #564C52",
" . c #495756",
".. c #5A5558",
"X. c #664C47",
"o. c #665448",
"O. c #74594B",
"+. c #714B50",
"@. c #675856",
"#. c #775A58",
"$. c #536850",
"%. c #657E4F",
"&. c #6A625B",
"*. c #766459",
"=. c #647957",
"-. c #4A5865",
";. c #4D566F",
":. c #5A5965",
">. c #655C65",
",. c #6E5C69",
"<. c #4A666A",
"1. c #556B72",
"2. c #686468",
"3. c #766865",
"4. c #7A7369",
"5. c #686775",
"6. c #786975",
"7. c #69777B",
"8. c #7B7577",
"9. c #93181D",
"0. c #AF1C2B",
"q. c #922B34",
"w. c #B12A33",
"e. c #C6352A",
"r. c #C4283A",
"t. c #93443E",
"y. c #BA443D",
"u. c #C24A3D",
"i. c #923447",
"p. c #B5394A",
"a. c #D62A44",
"s. c #D3354D",
"d. c #E33147",
"f. c #E63C59",
"g. c #8E484A",
"h. c #855A57",
"j. c #975658",
"k. c #AB5153",
"l. c #8C655B",
"z. c #845A62",
"x. c #B35D6A",
"c. c #866A69",
"v. c #976D6D",
"b. c #877669",
"n. c #886C74",
"m. c #877A77",
"M. c #997876",
"N. c #AD6E70",
"B. c #B77576",
"V. c #D05255",
"C. c #EA4A55",
"Z. c #E96659",
"A. c #D25066",
"S. c #EF4D68",
"D. c #CD6F75",
"F. c #E7666F",
"G. c #78875E",
"H. c #74856A",
"J. c #8D8B72",
"K. c #88837C",
"L. c #968476",
"P. c #9E8B7B",
"I. c #A68276",
"U. c #A18E7E",
"Y. c #B18977",
"T. c #A4927E",
"R. c #91A279",
"E. c #D89377",
"W. c #5A7787",
"Q. c #687887",
"!. c #6D738E",
"~. c #767888",
"^. c #887986",
"/. c #977983",
"(. c #8A7B99",
"). c #B5788B",
"_. c #DD5F80",
"`. c #D3748B",
"'. c #EB6D89",
"]. c #778992",
"[. c #7492AE",
"{. c #72A0A5",
"}. c #77A8DE",
"|. c #8A8686",
" X c #978986",
".X c #99948B",
"XX c #888996",
"oX c #938F96",
"OX c #A38A85",
"+X c #A59383",
"@X c #A99686",
"#X c #A79789",
"$X c #AC9789",
"%X c #AD9A8A",
"&X c #B29C8C",
"*X c #BC9D89",
"=X c #AE8992",
"-X c #A69997",
";X c #AB9D93",
":X c #B69B94",
">X c #8EA189",
",X c #97A688",
"<X c #99A698",
"1X c #B1A08E",
"2X c #ABA397",
"3X c #ACA39B",
"4X c #B4A293",
"5X c #B2A49B",
"6X c #BAA89A",
"7X c #8697A8",
"8X c #8990AC",
"9X c #9898A4",
"0X c #AE97A5",
"qX c #9BA6A9",
"wX c #9AA8B7",
"eX c #A7A9A9",
"rX c #B5ABA3",
"tX c #BBADA4",
"yX c #B7ABA9",
"uX c #AAB5AA",
"iX c #BCB1A6",
"pX c #BCB3AB",
"aX c #B8B7AD",
"sX c #A6A8B7",
"dX c #B8A9B9",
"fX c #ABB5B6",
"gX c #BDB5B1",
"hX c #B4B8B8",
"jX c #C3A89E",
"kX c #C995AC",
"lX c #E194A0",
"zX c #C5B4A9",
"xX c #C2B5AC",
"cX c #CEABB3",
"vX c #C3BBB4",
"bX c #C6BCB7",
"nX c #C8C2BB",
"mX c #D0C1BB",
"MX c #96ACC8",
"NX c #99B4D6",
"BX c #A9B5CA",
"VX c #B2BBD2",
"CX c #8AB0E4",
"ZX c #CBB7C6",
"AX c #E2ADC4",
"SX c #B7C7DB",
"DX c #B8CDE7",
"FX c #CBC3C4",
"GX c #CCC8C8",
"HX c #CFC8D5",
"JX c #EDCFD9",
"KX c #CAD5ED",
"LX c #D8DAF6",
"PX c #E8CEE8",
"IX c #D9E3FC",
"UX c #E2E8F6",
/* pixels */
"@.B W t ] #.=XcXcX0X=XOX X-Xn.,.n./.Q >.hXGXhXfXoX,.^.0Xm.8.@.M [ |.tXjX*XY.E.L.@. X@.8.9Xn.] @ 3 2.P.oXW.E { 6.6.^.8XMX8X^.n.n.",
"|.2.W d n.z.M.kXkXv.:XrXHXHXoXsXZX0X| m.hXFXhXeX~.:.#.M.M.6Xm.o.#.:XjXOXOX-XU.M.c.M.^.VXVXsX>.r ].BX|.~.;.< E !.(.6.,.oX6.#.n.dX",
"KXfX{ '  Xc.n.=X/.N.:XHXUXUXHXLXLXHXm. XhXfXhXsX8X!.6.n.B.M.@._ h.I.I.c.oXVXXX0X:Xc.oXSXVXVX!.-.NXDXMX!.} ; E 8XXX3.#.oXM.v.M.vX",
"KXVX8.m.OX X5.~.|.m.m.BXDXKXKXDXSXBXoXXXqXqXfXMXCX}.[.~.v.z.6 3 +.c.M.n.!.NXMXBX-Xc.oXfXwXMX7XQ.MXSXDX7X| , W 8.m.n.6.9XoX/.c.yX",
"9X].2.3.n.oX].].7X7X].].1.1.1.<.<.<.<.<.<.].qXsXCX}.[.{.c.+.4 O : Q 3.^.!.NXNXNXXX3.n./.9XBXBXQ.XXeXBX7X( ; W ..>.5.:.5.8XSXVXSX",
"{ W u / :.7.~.Q.].].{.].W.<.<.<./ / / / / ].qXsXMX[.[.sXlXlX).~ - s 1.Q.Q.[.[.7X!.} >.3.^.sXsX~.XX].wXXX' : s :.} ;.;.1.7XMXNXNX",
"wX7XoXXXeXXX].1.-.<.-.1.1.1.1.<. ./ <.<.<.].qXqX].^.=X`.'.'.lX`.~ 5.7.~.-.1.5.~.~.(.=X=X=XdXsX9XwXMXVX8X5.:.Q.XX].].].7.7.7.7.Q.",
"H.H.H.H.H.=.H.$.S  .S S $.=.=.%.%.%.=.=.=.H.J..Xm.B.F.F.F.F.'.lX^ 9XXXXX2.N.D.`.'._._.F.F.`.`.0XwXwXfX9X|.9XqX9XsXwXwXXX7.1. . .",
">X,X<X>X<X<X<X<X<X<X<X<X<X>X,X>XR.G.R.R.,X,X,X,XT.x.A.A.A.A.S.F.q.kXUXUXJXF.S.S.S.S.S.C.C.f.s.*XuX<XuXuXaXhXuXuXuXuXuXuXuX<X<X,X",
"uXuXhXfXhXfXhXhXhXhXhXhXhXeXeX2X,X4..XuXuXfXfXuXOXk.p.p.p.p.p.D.k cXPXIXPXA.d.C.S.C.C.S.C.f.a.V.=XH.<X<XqXeXeXeXeXuXeXeXuXuXuXfX",
"I U [ U U I U I I I I &.=.[ U $.R H H R R I I U T p.w.q.x.`.AXcXV i.ZXKXHXD.r.a.C.f.f.f.A.s.a.d.t.U A A G J J J J I e H I I I U ",
"G F G G A A A 0 e A A U [ A A F H F Z F H H Z Z Y N.B.B.B.x.g.j V g.0XZXFXB.r.0.s.f.f.f.s.s.a.d.lX[ e = Z G A e G A = A A F F A ",
"G H H G G A e 0 $ $ e I I A A A F F Z F H H H D U h.k ^ k l V ` X.+./.0X;X=Xr.0.r.f.f.s.s.a.a.f.AXqXa G G G Z = A e A H F F H D ",
"H H J I A A S q 3 3 0 J H F F F F F Z H H F D G G U v 8 w [ n ] 2 C v. X3.h.0.w.r.s.f.s.s.a.s.A.PXSXS x G G G = G J G J G G G G ",
"H A 0 0 A A A q a q q J A H F F H H Z F H F F G A G T k T v +.+.+ g v.K.z.k 9.0.r.d.a.a.w.0.p.AXLXKXS x G J J e a e q a a e m e ",
"A 0 1 $ e 0 e a a q J ) 0 e 0 = A A A = F A F x e x q.9.g.T O.C # ^ c.b.c.g h w.0.a.r.s.p.).ZXLXKXSXd e 0 ( B w f q 1 i i f B 3 ",
"q 3 - $ q 3 q a a e [ ) 3 e q 1 3 $ $ 0 e e S _ 9 % q.h k C V z n c.4.m.v.g h 9.0.r.w.`.).PXLXKXKXBXd 6 1 N Q y ' 5 1 ) d ( | w ",
"3 1 - 1 5 3 5 a q q ..a 3 3 1 1 1 O : 1 3 1 ' 6.d 4 h.C ^ j P o.b |.|.c.h.g g h 9.w.D.jXHXIXLXLXDX!.u 3 4 4 y r d r 4 ) N B _ Q ",
"5 1 - 4 q i i a q a ..d 3 1 1 4 1 - 1 1 4 @ K 2...{ { ! ) @.o.j b X.*.c.C g g C j.j.*.M.HXIXLXDX7XW N a f N ( ) ' ' ( _ [ [ ....",
") ( f a a a S J a d @.) K f S f d d f N ( ( ( @.} { / W ..| n 6 5 w [ 3.g g g #.b.b.#X4XyXLXKXDX~.8.4.m.|.|. X X.X X X X.X.X.X.X",
"m.m.m.m.m.4.m.K.K.8.K.K.K.K.K.m.K.K.K.K.K.K...{ W W W W W W - o o N b.b.#.+.+.~ M.:X&Xv.j.PXKXBX-X#X-X;X;X2X4X4X4X2X3X3X5X;X;X3X",
"#X;X3X2X3X-X-X3X2X-X2X2X3X3X3X2X2X3X3X5XrXK./ W W s u u u s r o   N b.M.c.n.6.>.X.k h w.i.PXVXeX;X;X;X;X;X4X3X3X5X5X5X5X5X5X5X5X",
";X3X5X5X5X2X3X3X3X3X3X3X3X3X3X3X3X3X3X5X-X2.) W W W W W W r W   : ..OXv.OX X/.~.0Xg.0.r.w.cXsX5X5X5X3X5X5X5XrXrXrXrXrX5X5X5XrXrX",
"3XrX3X3X3X;X;X3X3X3X3XrXrX3X3XrXrXrXrX4.[ ..) { W / ) | d Q Q : : y M.=XcX-XoX-XkXk.0.w.w.k.cXiXiXiXpXiXtXpXpXpXiXtXtXtXtXtXtXpX",
"5X5X3X5X3X;X5XtXiXyXyXpXgXvXgXgXgXgXvXm _ ' W ) / / ( ] @ 1 f N o | yXcX0X^.XX/.p.p.w.0.0.D.bXbXgXbXnXbXbXvXvXbXvXxXxXxXxXxXvXxX",
"tXtXtXtXtXrXtXgXgXgXgXgXgXvXgXgXvXbXbXL 6 ' Q Q s u N 7 O 4 N : O _ -X:XM.N.0X).p.0.9.q.x.cXZXnXnXnXnXbXnXnXnXnXnXnXbXbXbXbXnXbX",
"aXpXgXgXvXgXvXgXpXaXpXaXgXvXgXgXvXvXbX[ L m ( ( d r i N 2 Q 2 q f X.N.Y.D.k.=XN.k h g.j cXcXbXGXFXFXFXFXFXGXGXGXGXGXGXGXGXGXGXGX",
"pXpXpXgXgXgXgXpXpXaXaXpXpXvXbXvXbXbXFX3X@.z @.` n Q > 2 5 y 6 9 2 7 O.l.h.l ..| n./.m.@ @.x.E.jXBXyXyXbXGXGXGXGXFXFXFXnXnXbXbXbX",
"nXnXnXFXFXFXFXFXFXFXFXFXFXFXGXGXGXGXGXGX.X*.*.X.P ] w > 4 o 2 8 6 r O mX| / ;.1.Q.5.O O - X.V.k.h.3.&.3.m.rXrXrXtXrXtXtXtXtXrXrX",
"GXGXFXFXFXFXFXFXFXZXZXZXFXFXFXFXFXFXFXFX@.*.o.X.O.X.M + O r 2 & 7 : O @.m.8.;.W.1.-.O O > y #.V.V.j.@.@.#.3.K.yXtXtXiXxXvXxXxXzX",
"bXbXvXbXbXvXvXvXpXpXiXtXpXpXiXiXiXiXpXvX#.O.Y ` P O.c   - i @ @ ! d o   @ 4.oXW / !.E t a s 5.k.C.V.l.>.| @.>.m.yXtXiXiXtXtXrX6X",
"rXrXrXrXtXtXrX6X6X6X6X6XzXzXiXtXiXzXtXzXb.O.X.P Y c L X r - : ! { r o O   : M.m.2.y } $ s ( ..j.k.Z.F.x.V ` | @.^.6X6X4X4X4X5X4X",
"xXpXiXxXxXtXtXtXiXtXxXxXxXxXxXxXxXzXbXzX*.O.o.P o.` K i 4 O 1 5 5 r 1 r r 4 3 M.M.8 i o u f  .j.q.g.F.Z.D.g.P | @.-X4X4X4X%X%X%X",
"bXvXzXzXzXzXzXzXpXxXpXpXpXtXpXtXiXzX6X4X@.@.o.` K 7 _ p d O @ 2 6 i i i s W i 6 B.j.+ O r a  .j.e.C k.Z.Z.Z.g.X.o.*.5X4X1X%X%X&X",
"tXtX6X6X4X4X4X4X5X6X4X4X;X;X4X4X4X4X4X*.o.@.B @ f d ' 9 $ @ @ 2 9 q 4 r W ) W O V B.C . 4 5 W +.e.q.l V.C.C.V.+.o.o.P.%X1X1X1X%X",
"4X;X4X4X4X&X&X4X4X4X4X4X&X&X&X4X6X4XjX3.w w @ w ) O p w 8 @ @ 2 9 q N 4 ) { { u > O.k.+ O 0 d { C w.q.y.u.V.AXc.| ,.*.+X$X%X%X%X",
"&X4X4X:X&X&X&X&X&X&X&X&X&X&X&X&X&X&X4XL.w 6 J ' f @ 8 x x % $ % 2 9 Q f { { { W r + C l X u 7 p C V.e.y.w.lXZXfX] @.@.%X%X%X@X@X",
"&X&X&X&X&X&X&X&X&X&X&X&X&X&X&X&X&X&XL.$XL z M ( J b L v M % 2 2 2 9 p Q ) } } { W B j j.+ 6 m 1 C V.0.y.`.AXsXHX@.o.` 4X&X@X+X@X",
"%X%X%X$X%X&X&X&X&X&X&X&X&X&X&X&X&X&X+XO.P x z [ *.@.P v c % $ $ 2 9 p W ) { ..{ { ) w j.j B ] ' K k.w.D.cXwXBX~.B ] K ;X&X&X%X@X",
"%X%X%X&X&X&X&X&X&X&X&X&X&X&X$X&X&X&X$X#X#X*.X.*.U.O.P c c 6 6 $ 2 2 p r { } } } } ) 6 j.j ( @...>.v.=X#.gXsXsX) B B z %X@X%X%X@X",
"%X%X%X&X&X&X&X&X&X$X$X$X$X$X$X$X@X&X&X%X&X&X%X:XU.T Y v c 8 q $ @ 9 p s } :.} } } W 9 g.h.' ) 1.;.(.^.^.eX X! n J b b %X+X@X%X@X",
"%X$X@X@X$X%X%X$X@X+X+X$X&X%X%X&X%X&X%X@X@X%X1X%XU.Y Y c c x w % % i d ) :.:.{ } { r 6 V X.3. .{ -.5.sX^._ & 6 p B b z *.3.m.m.m.",
"%X%X%X%X%X%X%X$X@X+X%X%X%X%X%X%X%X%X%X%X@X%X%X&X+Xo.T x c x m 6 % p d { :.:.{ { Q y 2 + 7 B 7 9 s 6.2.9 @ % w n B n z x 3.3.b.#X",
"%X$X%X%X%X$X%X%X%X@X%X%X%X%X%X%X%X@X@X%X&X%X%X1XU.o.P c x x L w 6 p Q } ..} { Q d p 6 V V # #.o.m.|.N 9 $ 6 z ( V n x M ( @.m.$X",
"%X%X@X$X%X%X%X4X1X%X%X%X%X%X%X%X%X@X@X%X%X%X1X4XL.o.x v x x ` m w f | >.5.} ) d w w 6 V OX* L.OX XN N p & w L ] B 8 8 + ! ..4. X",
"&X&X&X4X4X4X4X4X1X%X%X%X%X%X%X%X%X@X@X%X@X@X$X+XP.o.j v c c [ K N ( ..5.2.} W i w z 6 c.#X3.-Xm.B Q ( n z L L B z * * b ) @.@.@.",
"%X%X%X%X%X%X$X$X%X@X@X@X@X@X@X+X@X@X@X$X%X@X%XP.L.P * P c P O.@._ [ 4.2.' ' d p m M *  X@.#.#.n ( ( N B ] ` M 7 * & @ 5 y Q p p ",
"%X%X@X+X+X@X+X+X+X+X+X+X@X+X+X+X@X@X@X+X$X@X&XL.b.P 8 z c o.o.*.&.3.8.@.) ) N n B M & a @ V V B ! ! m B o.` 8 & & @ X O r ! ..' ",
"$X@X+X@X%X@X+X@X@X+X@X%X@X@X@X@X@X@X%X@X$X$X%XL.b.K 8 % c o.Y o.@.3.&.[ ( Q m K _ B @ : : n B B Q n 7 M ` M & & @ . . o r d 2.( ",
"+XU.+X@X&X%X%X%X@X+X+X%X%X@X@X$X$X@X@X%X@X%X%Xb.O.M x 8 c Y P P L _ ' ' ( N b ] _ z + 1 5 n B B N @ w z M x & 6 X       O - 5 J ",
"@X+X+X@X%X%X%X@X+X+X+X@X+X+X@X@X$X+X@X+X+X@X@Xb.Y c z m c P P P K L ` K B p b L _ w @ Q y b M z O @ m K z 8 * + .     O O 1 4 3 ",
"$X+X+X+X@X+X%X+X+X+X+X+X@X+X+X+X+X+X@X+X@X@X@Xb.P c x K c v Y P P o.` B p p b L L @ $ ) n B m @ O 2 B b 8 * * X       O - ..8.[ ",
"@X+X+X@X@X+X@X+X@X+X+X@X@X@X+X+X+X@X@X+X@X%X%Xb.P x x M v Y T X.P L K m 6 w b B B X $ p B L L.6 @ w ( w & z L O o     o - y ' 3.",
"+X+X+X+X+X+X$X@X@X+X+X+X+X@X@X+X+X+X@X+X@X@X@Xb.P c x L P O.o.X.P M m w 6 9 b n n @ p B _ $X;X9 2 N K 8 % 3.& $ X . . o 9 | _ &.",
"+X+X$X@X@X+X@X+X+X+X+X+X@X$X$X+X+X+X@X+X+X@X@X@XP x c o.v T T Y v M z w p p p n p @ B 3.+X%X5X@ 6 K K z z b.@ @ O X X . 4 3.L.m.",
"@X@X+X+X@X$X@X+X+X$X+X+X@X@X@X+X@X@X@X+X@X%X$X4Xb.* P o.x v Y P x 8 6 w ' ' 6 w w ` #X4X%X4X+X8 w _ _ b b.b.z 9 O X X @ _  XL.L.",
"%X+X+X+X@X+X@X@X+X+X+X+X+X@X@X+X@X@X@X@X%X%X%X%X+Xv P P x j x x 8 & 8 @.3.@.2 6 o.$X;X$XU.T.b.b m _ ( L #X+XL.4.&.z m *. X#X+X+X",
"+X+X+X+X$X+X@X+X@X@X@X+X+X+X+X+X+X@X+X@X@X%X$X#XL.P 8 x x & * & + 6 @.4.3.' 6 & b.%X$X@XU.U.o.b K ( b b.%X$X$X+X$XP. X;X$X+XP.P.",
"U.+X+X@X@X+X@X$X+X+X@X+X+X@X+XU.+X+X@XU.U.U.+X#Xm.K & * & 8 % & + @.4.3.2.B p & %X%X%X@X$X$Xo.B B m z $X#X+XP.L.+XU.$X+X+X+XP.U.",
"+X@X@X+XU.+X+X+XU.P.+X+XP.P.U.U.U.P.U.U.P.+X+X+Xb.K % + @ @ @ @ z &.&.....N n @.#X$X%X;X4X+XM z b 8 L.#X%X+XU.+X+X+X+XU.+XP.P.+X",
"P.+X+X+X+XU.U.P.P.P.P.U.P.L.+XP.U.+XU.U.U.+X+X@Xb.M % @ @ @ m #X3.....( ( d 9 @.$X%X%X$X%Xb.c 7 7 o.+X@X+X+XT.U.T.T.T.T.T.+X+X+X",
"P.+X+XP.P.P.U.U.P.+XU.P.P.L.L.L.U.+X+X@X@X+XP.+X3.L 6 % % 6 m.K.3.>.) Q Q p 4 2 $X@X#X#X+X` B 8 ]  X@X@X+X+X+XU.U.U.P.T.P.P.P.P.",
"P.U.P.P.U.U.+X+X+X+X+X+XU.P.+X+X@X+X@X%X%X%X@X$X*.L 6 6 & 3...>.5.:.) Q N w 5 % ;X%X%X+Xb.K m m L.+X+X+X+XP.P.P.P.P.P.P.+X+XP.L.",
"P.+X@X@X+XP.P.+X+X+X+XU.U.+XU.+X@X@XU.+X+XU.U.$Xo.K 6 6 [ &.' ) :.:.8.| K w 5 3.#X@X$XU.L m w o.#X+X+X+XP.P.U.+X+X+X+XU.+XU.+XU."
};
